<svg xmlns="http://www.w3.org/2000/svg" viewBox="0 0 512 512" fill="none">
  <rect width="512" height="512" rx="120" fill="#06080f" />
  <rect x="44" y="44" width="424" height="424" rx="92" fill="url(#panel)" />
  <path
    d="M154 354c31-28 65-42 102-42s71 14 102 42"
    stroke="#2dd4bf"
    stroke-width="24"
    stroke-linecap="round"
  />
  <path
    d="M176 235c0-46 36-82 80-82 22 0 42 9 57 25 15 15 24 35 24 57 0 21-9 41-24 56-15 16-35 25-57 25-44 0-80-36-80-81Z"
    stroke="#e5eef9"
    stroke-width="24"
  />
  <path d="M256 193v48h41" stroke="#7c3aed" stroke-width="24" stroke-linecap="round" />
  <defs>
    <linearGradient id="panel" x1="54" y1="58" x2="428" y2="452" gradientUnits="userSpaceOnUse">
      <stop stop-color="#0f172a" />
      <stop offset="1" stop-color="#111827" />
    </linearGradient>
  </defs>
</svg>
